# xmcd
#
# Track frame offsets: 
#        150
#        11945
#        23657
#        34442
#        44640
#        54895
#        65297
#        76155
#        87245
#        99937
#        110672
#        121335
#
# Disc length: 1744 seconds
#
# Revision: 0
# Processed by: cddbd v1.5.2PL0 Copyright (c) Steve Scherf et al.
# Submitted via: ExactAudioCopy v1.0b1
#
DISCID=9406ce0c
DTITLE=Junior Parker - Driving Wheel
DYEAR=1962
DGENRE=Blues
TTITLE0=Driving Wheel (stereo)
TTITLE1=I Need Your Love So Bad (stereo)
TTITLE2=Foxy Devil (stereo)
TTITLE3=Someone Broke This Heart Of Mine (stereo)
TTITLE4=How Long Can This Go On (stereo)
TTITLE5=Yonders Wall (stereo)
TTITLE6=Annie Get Your Yo-Yo (stereo)
TTITLE7=Tin Pan Alley (stereo)
TTITLE8=Someone Somewhere (stereo)
TTITLE9=Seven Days (stereo)
TTITLE10=The Tables Have Turned (stereo)
TTITLE11=Sweet Talking Woman (stereo)
EXTD=
EXTT0=
EXTT1=
EXTT2=
EXTT3=
EXTT4=
EXTT5=
EXTT6=
EXTT7=
EXTT8=
EXTT9=
EXTT10=
EXTT11=
PLAYORDER=
